# xmcd CD database file
#
# Track frame offsets:
#	150
#	12477
#	26160
#	40311
#	51694
#	64466
#	81059
#	97960
#	110310
#	124642
#	141053
#	154756
#
# Disc length: 2292 seconds
#
# Revision: 0
# Processed by: cddbd v1.5.2PL0 Copyright (c) Steve Scherf et al.
# Submitted via: CDex 1.51
#
DISCID=a308f20c
DTITLE=Bingham, Bob - Alone at Last
DYEAR=1996
DGENRE=Blues
TTITLE0=Slidin' Delta
TTITLE1=El Capitan
TTITLE2=Got a Real Bad Feelin'
TTITLE3=Screamin' and Cryin'
TTITLE4=Police Sargeant Blues
TTITLE5=Footsteps of a Fool
TTITLE6=Nightime is the the Rightime
TTITLE7=That's No Way to Get Along
TTITLE8=If You Got a Good Gal
TTITLE9=Ragged and Dirty
TTITLE10=Step It Up
TTITLE11=Cradle to the Grave
EXTD=YEAR: 1996
EXTT0=
EXTT1=
EXTT2=
EXTT3=
EXTT4=
EXTT5=
EXTT6=
EXTT7=
EXTT8=
EXTT9=
EXTT10=
EXTT11=
PLAYORDER=
